<?xml version="1.0" encoding="utf-8"?>
<!-- Generator: Adobe Illustrator 16.0.3, SVG Export Plug-In . SVG Version: 6.00 Build 0)  -->
<!DOCTYPE svg PUBLIC "-//W3C//DTD SVG 1.1//EN" "http://www.w3.org/Graphics/SVG/1.1/DTD/svg11.dtd">
<svg version="1.1" id="Ebene_1" xmlns="http://www.w3.org/2000/svg" xmlns:xlink="http://www.w3.org/1999/xlink" x="0px" y="0px"
	 width="78.417px" height="47.297px" viewBox="0 0 78.417 47.297" enable-background="new 0 0 78.417 47.297" xml:space="preserve">
<g>
	<path fill="#FFFFFF" d="M71.078,46.615L34.234,31.603L8.159,20.978L3.62,19.06c-1.798-0.76-2.996-2.487-3.08-4.437L0.002,2.176
		c-0.067-1.562,1.547-2.65,2.979-1.972c0.384,0.182,0.692,0.494,0.919,0.853l4.473,7.091c1.848,2.93,4.727,5.042,8.053,5.937
		c0.088,0.023,0.178,0.046,0.268,0.068c0,0,8.242,2.105,17.863,4.561c0.084,0.021,0.158-0.058,0.131-0.14l-5.59-16.028
		c-0.324-0.93,0.584-1.817,1.506-1.47l3.777,1.42c0.353,0.133,0.656,0.367,0.873,0.675l13.536,19.15
		c0.015,0.022,0.039,0.037,0.063,0.043c2.691,0.688,5.22,1.333,7.42,1.895c5.988,1.529,11.126,3.143,15.637,7.652
		c2.963,2.963,6.381,10.162,6.381,10.168c0.137,0.678,0.178,1.361,0.051,2.047C77.804,47.022,74.691,48.142,71.078,46.615z"/>
	<path fill="#FFFFFF" d="M24.648,40.452c-1.427,0.316-2.918-0.125-3.942-1.168l-0.748-0.763c-0.379-0.386-0.305-1.022,0.152-1.31
		l7.82-4.908l10.911,4.476L24.648,40.452z"/>
</g>
</svg>
