<svg xmlns="http://www.w3.org/2000/svg" xmlns:xlink="http://www.w3.org/1999/xlink" viewBox="0 0 64 64"><defs><style>.cls-1{fill:url(#radial-gradient);}.cls-2,.cls-3{fill:#fff;}.cls-2{opacity:0.6;}.cls-4{opacity:0.1;}</style><radialGradient id="radial-gradient" cx="32" cy=".05" r="64" gradientUnits="userSpaceOnUse"><stop offset="0" stop-color="#fff" stop-opacity="0.15"/><stop offset=".5" stop-color="#fff" stop-opacity="0.1"/><stop offset="1" stop-color="#fff" stop-opacity="0"/></radialGradient><symbol id="ambient-lighting" viewBox="0 0 64 64"><path class="cls-1" d="M0 0h64v64h-64z"/></symbol></defs><title>grid</title><rect width="64" height="64" fill="#309FDB"/><g id="icons"><path class="cls-2" d="M19 18h7v8h-8v-7a1 1 0 0 1 1-1z"/><path class="cls-3" d="M28 18h8v8h-8zM38 18h7a1 1 0 0 1 1 1v7h-8v-8zM18 28h8v8h-8zM28 28h8v8h-8z"/><path class="cls-2" d="M38 28h8v8h-8z"/><path class="cls-3" d="M18 38h8v8h-7a1 1 0 0 1-1-1v-7z"/><path class="cls-2" d="M28 38h8v8h-8z"/><path class="cls-3" d="M38 38h8v7a1 1 0 0 1-1 1h-7v-8z"/><path class="cls-4" d="M28 46h8v1h-8zM18 36h8v1h-8zM28 36h8v1h-8zM38 36h8v1h-8zM18 26h8v1h-8zM28 26h8v1h-8zM38 26h8v1h-8zM18 45v1a1 1 0 0 0 1 1h7v-1h-7a1 1 0 0 1-1-1zM46 45v1a1 1 0 0 1-1 1h-7v-1h7a1 1 0 0 0 1-1z"/></g><use width="64" height="64" xlink:href="#ambient-lighting" id="lighting"/></svg>